<svg width="203" height="26" viewBox="0 0 203 26" fill="none" xmlns="http://www.w3.org/2000/svg">
<path d="M5.95382 9.7322V0.194336H0.265625V25.7255H5.95382V16.7161L18.5162 25.6771L18.5847 25.7255H28.3787L5.95382 9.7322Z" fill="#0A0931"/>
<path d="M17.7343 0.238281L7.46875 8.36579L11.9732 11.5662L26.29 0.238281H17.7343Z" fill="#F3141E"/>
<path d="M41.4888 0.194179L28.9688 25.7482H34.9871L44.1425 7.06055L47.9292 14.7905H42.461L39.8902 19.9765H50.471L53.2995 25.7482H59.3145L46.7934 0.194179H41.4888ZM99.7249 0.194179L87.2004 25.7482H93.2193L102.376 7.06111L106.16 14.7905H100.694L98.1252 19.9765H108.705L111.533 25.7482H117.551L105.028 0.194179H99.7249ZM157.954 0.194179L145.433 25.7482H151.453L160.607 7.06055L164.394 14.7905H158.928L156.355 19.9765H166.936L169.765 25.7482H175.782L163.259 0.194179H157.954ZM81.6052 14.7838C82.48 13.9991 83.18 13.0392 83.6598 11.9664C84.1396 10.8936 84.3885 9.73186 84.3902 8.55665C84.3902 7.37235 84.1391 6.21534 83.6447 5.11734C82.3368 2.21812 79.4415 0.291061 76.2722 0.208656L76.2054 0.205315C76.1537 0.201772 76.1019 0.199915 76.05 0.199747L60.5205 0.194179L60.2611 0.208656V25.7248H65.9498V5.50598L75.7499 5.50543C76.5325 5.55464 77.2669 5.8998 77.8043 6.47083C78.3416 7.04186 78.6415 7.79596 78.643 8.58004C78.643 10.1752 77.3975 11.5249 75.8078 11.653L68.0573 11.6675V16.9152H73.2516L80.0684 25.7476H86.8301L79.4509 16.1858C80.237 15.8323 80.9636 15.3594 81.6052 14.7838ZM143.795 14.7677C143.319 13.8336 142.66 13.0053 141.856 12.3323C142.345 11.7974 142.751 11.1918 143.06 10.536C143.519 9.57295 143.757 8.51982 143.758 7.45309C143.758 5.71645 143.125 4.03327 141.977 2.71367C141.288 1.92172 140.437 1.28666 139.482 0.851281C138.526 0.415901 137.489 0.190315 136.439 0.189725H120.169L119.909 0.218121V25.8768H136.885C140.061 25.8768 142.962 23.8946 144.102 20.9447C144.445 20.0578 144.619 19.1346 144.619 18.2014C144.619 17.0065 144.341 15.8506 143.795 14.7677ZM125.593 5.48984H135.803C137.103 5.48984 138.161 6.53828 138.161 7.8267C138.161 9.11734 137.103 10.1669 135.803 10.1669L127.659 10.1691V15.1407H136.193C137.708 15.1407 138.94 16.3646 138.94 17.869C138.94 19.3718 137.708 20.5945 136.193 20.5945H125.593V5.48984ZM195.085 10.0288L194.965 10.0294L186.637 10.0244C185.37 10.0244 184.339 8.98872 184.339 7.71478C184.34 7.10221 184.583 6.5149 185.016 6.08149C185.449 5.64808 186.036 5.40389 186.649 5.40242H200.982V0.124023H186.131C182.995 0.159658 180.258 2.09284 179.158 5.04886C178.836 5.89995 178.67 6.80209 178.669 7.712C178.669 8.94808 178.974 10.1797 179.553 11.2744C180.867 13.761 183.419 15.3061 186.214 15.3061H194.816C196.219 15.3256 197.361 16.4882 197.361 17.8974C197.361 19.3256 196.209 20.4887 194.749 20.4887L194.739 20.4882L180.124 20.4976L177.573 25.7732L194.899 25.7716C194.94 25.7766 194.983 25.7777 195.023 25.7777C195.065 25.7777 195.105 25.7766 195.121 25.7732C198.28 25.7359 201.088 23.8067 202.276 20.8573C202.656 19.9186 202.852 18.9149 202.851 17.9019C202.851 16.2426 202.335 14.648 201.36 13.2905C199.903 11.2671 197.557 10.0477 195.085 10.0288Z" fill="#0A0931"/>
</svg>
